<svg xmlns="http://www.w3.org/2000/svg" width="1042" height="1080" viewBox="0 0 1042 1080" fill="none">
<g opacity="0.7" clip-path="url(#clip0_29_2)">
<path d="M848.762 829.412C805.662 799.302 795.876 743.427 797.592 693.204C797.884 684.824 796.948 675.976 800.944 668.629C804.941 661.282 814.239 656.253 821.744 659.781C827.982 662.704 830.692 669.954 834.162 675.937C838.801 683.908 845.702 690.495 853.831 694.724C859.172 697.492 865.78 699.187 871.043 696.284C878.276 692.288 879.133 682.31 879.075 673.969C878.977 658.417 878.88 642.884 878.782 627.351C878.724 619.01 878.704 610.493 881.297 602.581C883.89 594.669 889.621 587.321 897.555 585.099C905.489 582.878 915.294 587.458 916.97 595.623C917.672 599.015 916.97 602.542 917.204 606.011C917.438 609.48 919.056 613.3 922.331 614.274C925.665 615.249 928.998 612.891 931.493 610.455C940.109 602.035 945.938 591.18 951.396 580.403C956.854 569.625 962.157 558.575 969.973 549.396C977.79 540.217 988.59 532.928 1000.54 532.265C1012.49 531.583 1025.22 538.969 1028.24 550.682C1031.26 562.434 1024.4 574.361 1016.93 583.891C1005.86 598.021 992.761 610.493 978.161 620.842C975.529 622.713 972.683 624.72 971.669 627.819C969.856 633.373 975.12 638.908 980.617 640.721C986.835 642.787 993.58 642.143 1000.09 642.904C1006.6 643.664 1013.64 646.528 1016.1 652.687C1019.51 661.204 1012.37 670.149 1005.37 675.996C991.319 687.708 975.276 696.966 958.16 703.241C952.02 705.482 945.567 707.451 940.616 711.758C935.665 716.065 932.682 723.568 935.665 729.434C938.647 735.32 946.328 737.191 952.761 736.002C959.193 734.813 964.944 731.325 971.065 729.005C982.527 724.679 997.323 725.478 1004.67 735.378C1009.51 741.888 1009.92 750.95 1007.48 758.706C1005.04 766.463 1000.09 773.148 994.828 779.326C976.465 800.88 952.936 818.226 926.347 827.444C899.758 836.662 875.118 839.157 848.684 829.49" fill="#F5F5F5"/>
<path d="M861.726 797.938C869.114 772.583 879.523 745.473 891.395 717.487C894.377 710.51 897.34 703.592 900.264 696.79C903.188 690.008 906.093 683.284 909.329 676.873C915.762 664.029 922.916 652.18 930.07 641.13C937.224 630.08 944.398 619.868 951.182 610.357C957.985 600.866 964.515 592.115 970.792 584.417C983.307 568.943 994.847 557.698 1003.09 550.292C1007.21 546.57 1010.5 543.802 1012.74 541.951C1013.83 541.074 1014.67 540.372 1015.32 539.866C1015.9 539.398 1016.21 539.184 1016.23 539.203C1016.23 539.223 1015.98 539.495 1015.41 540.002C1014.79 540.548 1013.97 541.288 1012.94 542.204C1010.75 544.134 1007.54 546.979 1003.48 550.76C995.374 558.302 983.989 569.625 971.63 585.138C965.431 592.876 958.979 601.626 952.215 611.137C945.47 620.667 938.335 630.898 931.24 641.949C924.144 652.979 917.029 664.809 910.654 677.594C907.438 683.967 904.572 690.632 901.648 697.433C898.744 704.235 895.781 711.134 892.798 718.111C880.946 746.078 870.517 773.109 863.071 798.366" fill="#E0E0E0"/>
<path d="M909.758 676.814C909.66 676.814 909.368 675.567 908.939 673.248C908.51 670.948 907.984 667.596 907.399 663.445C906.229 655.143 904.982 643.625 903.676 630.918C902.37 618.211 900.966 606.732 899.66 598.469C899.017 594.337 898.471 591.005 898.062 588.685C897.672 586.386 897.496 585.08 897.594 585.061C897.691 585.041 898.062 586.288 898.646 588.549C899.231 590.81 899.952 594.142 900.732 598.255C902.311 606.498 903.89 617.997 905.216 630.723C906.483 643.274 907.633 654.616 908.51 663.289C908.939 667.206 909.29 670.5 909.582 673.15C909.816 675.489 909.914 676.775 909.797 676.795L909.758 676.814Z" fill="#E0E0E0"/>
<path d="M1017.01 656.78C1017.01 656.877 1015.49 657.072 1012.74 657.286C1009.99 657.54 1006 657.871 1001.1 658.436C991.28 659.489 977.771 661.437 962.956 664.224C948.141 667.05 934.826 670.168 925.275 672.702C920.479 673.93 916.639 675.041 913.968 675.781C911.298 676.541 909.816 676.912 909.777 676.814C909.738 676.717 911.181 676.152 913.793 675.216C916.405 674.3 920.226 673.033 924.982 671.65C934.495 668.843 947.809 665.53 962.663 662.704C977.517 659.898 991.124 658.124 1001.01 657.345C1005.94 656.916 1009.95 656.741 1012.72 656.682C1015.49 656.643 1017.03 656.682 1017.03 656.78H1017.01Z" fill="#E0E0E0"/>
<path d="M863.051 795.95C863.051 795.95 862.759 795.521 862.31 794.644C861.823 793.592 861.219 792.305 860.478 790.766C858.899 787.394 856.755 782.444 854.162 776.305C848.996 764.027 842.368 746.838 835.331 727.758C828.294 708.679 821.842 691.45 816.929 679.075C814.532 673.053 812.543 668.122 811.062 664.439C810.438 662.841 809.912 661.535 809.483 660.444C809.132 659.528 808.976 659.04 809.034 659.001C809.093 659.001 809.327 659.43 809.775 660.307C810.262 661.359 810.867 662.626 811.607 664.185C813.186 667.557 815.331 672.507 817.923 678.646C823.089 690.924 829.717 708.113 836.754 727.193C843.791 746.273 850.244 763.481 855.156 775.857C857.573 781.859 859.542 786.809 861.024 790.493C861.648 792.091 862.174 793.416 862.603 794.488C862.954 795.404 863.11 795.911 863.051 795.93V795.95Z" fill="#E0E0E0"/>
<path d="M1005.55 750.034C1005.55 750.034 1005.08 750.287 1004.13 750.619C1003.02 750.989 1001.65 751.457 999.994 752.002C996.173 753.25 991.007 754.906 984.73 756.953C971.845 761.123 954.125 767.106 934.534 773.732C914.943 780.359 897.145 786.186 884.163 790.084C877.671 792.033 872.408 793.572 868.743 794.566C867.047 795.014 865.663 795.385 864.513 795.677C863.538 795.911 863.032 796.008 863.012 795.969C863.012 795.911 863.48 795.716 864.435 795.385C865.546 795.014 866.911 794.566 868.568 794.001C872.388 792.754 877.554 791.097 883.831 789.051C896.716 784.88 914.456 778.897 934.027 772.271C953.618 765.645 971.416 759.817 984.379 755.92C990.87 753.951 996.134 752.431 999.799 751.437C1001.49 750.989 1002.88 750.619 1004.03 750.326C1005 750.092 1005.51 749.995 1005.53 750.034H1005.55Z" fill="#E0E0E0"/>
<path d="M856.852 481.126H771.392V582.702H856.852V481.126Z" fill="#F5F5F5"/>
<path d="M774.336 474.5H388.109V589.095H774.336V474.5Z" fill="#1957B5"/>
<path d="M859.445 484.128H763.985V474.5H859.445C862.115 474.5 864.26 476.663 864.26 479.314C864.26 481.984 862.096 484.128 859.445 484.128Z" fill="#1957B5"/>
<path d="M859.445 589.095H763.985V579.467H859.445C862.115 579.467 864.26 581.63 864.26 584.281C864.26 586.951 862.096 589.095 859.445 589.095Z" fill="#1957B5"/>
<g opacity="0.4">
<path d="M743.984 474.5H698.35V589.095H743.984V474.5Z" fill="black"/>
</g>
<g opacity="0.4">
<path d="M468.014 474.5H422.379V589.095H468.014V474.5Z" fill="black"/>
</g>
<path d="M856.852 497.926C856.852 498.199 838.353 498.432 815.545 498.432C792.738 498.432 774.238 498.199 774.238 497.926C774.238 497.653 792.738 497.419 815.545 497.419C838.353 497.419 856.852 497.653 856.852 497.926Z" fill="#E0E0E0"/>
<path d="M856.852 513.146C856.852 513.419 838.353 513.653 815.545 513.653C792.738 513.653 774.238 513.419 774.238 513.146C774.238 512.874 792.738 512.64 815.545 512.64C838.353 512.64 856.852 512.874 856.852 513.146Z" fill="#E0E0E0"/>
<path d="M856.852 531.914C856.852 532.187 838.353 532.421 815.545 532.421C792.738 532.421 774.238 532.187 774.238 531.914C774.238 531.641 792.738 531.408 815.545 531.408C838.353 531.408 856.852 531.641 856.852 531.914Z" fill="#E0E0E0"/>
<path d="M856.852 550.663C856.852 550.935 838.353 551.169 815.545 551.169C792.738 551.169 774.238 550.935 774.238 550.663C774.238 550.39 792.738 550.156 815.545 550.156C838.353 550.156 856.852 550.39 856.852 550.663Z" fill="#E0E0E0"/>
<path d="M856.852 569.43C856.852 569.703 838.353 569.937 815.545 569.937C792.738 569.937 774.238 569.703 774.238 569.43C774.238 569.158 792.738 568.924 815.545 568.924C838.353 568.924 856.852 569.158 856.852 569.43Z" fill="#E0E0E0"/>
<g opacity="0.2">
<path d="M673.827 521.585H500.061V542.224H673.827V521.585Z" fill="black"/>
</g>
<path d="M855.975 591.336H769.209V653.233H855.975V591.336Z" fill="#FAFAFA"/>
<path d="M770.184 589.095H400.897V655.474H770.184V589.095Z" fill="#455A64"/>
<path d="M767.494 593.577H860.751C861.998 593.577 862.993 592.564 862.993 591.336C862.993 590.089 861.979 589.095 860.751 589.095H767.494V593.577Z" fill="#455A64"/>
<path d="M767.494 650.972H860.77C862.018 650.972 863.012 651.985 863.012 653.213C863.012 654.46 861.998 655.454 860.77 655.454H767.494V650.972Z" fill="#455A64"/>
<path d="M855.994 603.088C855.994 603.36 836.793 603.594 813.089 603.594C789.385 603.594 770.184 603.36 770.184 603.088C770.184 602.815 789.385 602.581 813.089 602.581C836.793 602.581 855.994 602.815 855.994 603.088Z" fill="#E0E0E0"/>
<path d="M855.994 614.8C855.994 615.073 836.793 615.307 813.089 615.307C789.385 615.307 770.184 615.073 770.184 614.8C770.184 614.528 789.385 614.294 813.089 614.294C836.793 614.294 855.994 614.528 855.994 614.8Z" fill="#E0E0E0"/>
<path d="M855.994 626.513C855.994 626.786 836.793 627.02 813.089 627.02C789.385 627.02 770.184 626.786 770.184 626.513C770.184 626.24 789.385 626.007 813.089 626.007C836.793 626.007 855.994 626.24 855.994 626.513Z" fill="#E0E0E0"/>
<path d="M855.994 638.226C855.994 638.499 836.793 638.733 813.089 638.733C789.385 638.733 770.184 638.499 770.184 638.226C770.184 637.953 789.385 637.719 813.089 637.719C836.793 637.719 855.994 637.953 855.994 638.226Z" fill="#E0E0E0"/>
<path d="M713.126 612.852H458.462V630.177H713.126V612.852Z" fill="#263238"/>
<path d="M869.153 661.379H780.574V829.159H869.153V661.379Z" fill="#EBEBEB"/>
<path d="M780.574 655.474H364.834V837.383H780.574V655.474Z" fill="#094194"/>
<path d="M876.092 837.383H769.228V825.592H876.092C879.348 825.592 881.999 828.243 881.999 831.497C881.999 834.752 879.348 837.403 876.092 837.403V837.383Z" fill="#094194"/>
<path d="M769.209 655.474H876.073C879.328 655.474 881.979 658.124 881.979 661.379C881.979 664.634 879.328 667.284 876.073 667.284H769.209V655.493V655.474Z" fill="#094194"/>
<g opacity="0.4">
<path d="M691.157 655.474L603.708 837.383H677.589L760.495 655.474H691.157Z" fill="white"/>
</g>
<g opacity="0.4">
<path d="M553.22 655.474L465.772 837.383H539.652L622.559 655.474H553.22Z" fill="white"/>
</g>
<path d="M869.153 683.869C869.153 684.142 849.328 684.376 824.863 684.376C800.399 684.376 780.574 684.142 780.574 683.869C780.574 683.596 800.399 683.362 824.863 683.362C849.328 683.362 869.153 683.596 869.153 683.869Z" fill="#E0E0E0"/>
<path d="M869.153 705.385C869.153 705.658 849.328 705.891 824.863 705.891C800.399 705.891 780.574 705.658 780.574 705.385C780.574 705.112 800.399 704.878 824.863 704.878C849.328 704.878 869.153 705.112 869.153 705.385Z" fill="#E0E0E0"/>
<path d="M869.153 726.9C869.153 727.173 849.328 727.407 824.863 727.407C800.399 727.407 780.574 727.173 780.574 726.9C780.574 726.628 800.399 726.394 824.863 726.394C849.328 726.394 869.153 726.628 869.153 726.9Z" fill="#E0E0E0"/>
<path d="M869.153 748.416C869.153 748.689 849.328 748.923 824.863 748.923C800.399 748.923 780.574 748.689 780.574 748.416C780.574 748.143 800.399 747.91 824.863 747.91C849.328 747.91 869.153 748.143 869.153 748.416Z" fill="#E0E0E0"/>
<path d="M869.153 769.932C869.153 770.205 849.328 770.439 824.863 770.439C800.399 770.439 780.574 770.205 780.574 769.932C780.574 769.659 800.399 769.425 824.863 769.425C849.328 769.425 869.153 769.659 869.153 769.932Z" fill="#E0E0E0"/>
<path d="M869.153 791.448C869.153 791.721 849.328 791.954 824.863 791.954C800.399 791.954 780.574 791.721 780.574 791.448C780.574 791.175 800.399 790.941 824.863 790.941C849.328 790.941 869.153 791.175 869.153 791.448Z" fill="#E0E0E0"/>
<path d="M869.153 812.983C869.153 813.256 849.328 813.49 824.863 813.49C800.399 813.49 780.574 813.256 780.574 812.983C780.574 812.71 800.399 812.476 824.863 812.476C849.328 812.476 869.153 812.71 869.153 812.983Z" fill="#E0E0E0"/>
<path d="M282.259 612.345C266.762 588.646 269.023 554.775 287.522 533.337C293.273 526.691 301.304 520.903 310.057 521.644C319.024 522.404 326.256 530.102 328.985 538.677C331.714 547.252 330.759 556.548 329.161 565.396C326.919 577.791 323.157 590.478 314.56 599.697C305.963 608.915 293.312 618.367 282.259 612.325" fill="#83B4FF"/>
<path d="M290.836 726.452C285.008 712.83 289.238 695.582 300.72 686.227C304.287 683.324 308.946 681.063 313.39 682.252C317.952 683.46 320.973 688.079 321.597 692.737C322.221 697.395 320.895 702.111 319.258 706.515C316.977 712.693 313.897 718.891 308.614 722.866C303.351 726.823 295.983 730.565 290.817 726.452" fill="#83B4FF"/>
<path d="M253.448 718.306C257.717 697.297 246.625 674.105 227.599 664.205C221.693 661.126 214.421 659.313 208.476 662.295C202.374 665.355 199.45 672.78 199.938 679.582C200.425 686.383 203.7 692.659 207.306 698.427C212.355 706.515 218.554 714.389 227.19 718.462C235.825 722.535 247.366 725.653 253.448 718.306Z" fill="#83B4FF"/>
<path d="M256.138 661.496C263.565 637.544 250.972 608.525 229.997 594.786C223.486 590.517 215.24 587.555 207.969 590.323C200.523 593.148 196.253 601.451 196 609.422C195.766 617.393 198.827 625.071 202.355 632.204C207.287 642.221 213.564 652.102 223.135 657.832C232.706 663.581 248.184 669.311 256.118 661.476" fill="#83B4FF"/>
<path d="M271.031 778.527C271.031 778.527 270.914 778.137 270.797 777.357C270.66 776.48 270.504 775.389 270.29 774.025C270.193 773.284 270.076 772.485 269.959 771.608C269.783 770.731 269.608 769.776 269.413 768.763C269.023 766.716 268.614 764.378 267.951 761.844C267.639 760.577 267.327 759.233 266.976 757.849C266.567 756.485 266.157 755.043 265.729 753.581C264.929 750.599 263.74 747.539 262.649 744.265C260.192 737.795 257.151 730.818 253.409 723.763C249.588 716.747 245.475 710.355 241.44 704.722C239.315 701.994 237.404 699.304 235.377 697.005C234.383 695.835 233.428 694.685 232.511 693.594C231.537 692.542 230.601 691.548 229.724 690.573C227.989 688.624 226.254 686.987 224.773 685.545C224.032 684.824 223.35 684.142 222.706 683.518C222.043 682.934 221.439 682.388 220.874 681.901C219.86 680.985 219.022 680.225 218.359 679.64C217.794 679.114 217.501 678.822 217.521 678.802C217.54 678.783 217.872 679.016 218.476 679.484C219.158 680.03 220.036 680.731 221.108 681.608C221.693 682.076 222.316 682.602 222.999 683.168C223.661 683.772 224.383 684.434 225.143 685.136C226.683 686.559 228.437 688.157 230.231 690.086C231.147 691.041 232.102 692.035 233.096 693.068C234.032 694.159 235.007 695.29 236.02 696.459C238.087 698.759 240.036 701.429 242.2 704.177C246.293 709.809 250.485 716.221 254.325 723.295C258.087 730.389 261.128 737.425 263.545 743.953C264.637 747.266 265.787 750.365 266.567 753.366C266.976 754.848 267.386 756.29 267.775 757.674C268.087 759.077 268.399 760.421 268.692 761.708C269.315 764.261 269.666 766.619 270.017 768.685C270.193 769.698 270.349 770.673 270.485 771.55C270.582 772.427 270.66 773.245 270.738 773.986C270.855 775.369 270.972 776.48 271.05 777.357C271.109 778.137 271.128 778.527 271.089 778.546L271.031 778.527Z" fill="#263238"/>
<path d="M270.485 782.834C270.485 782.834 270.485 782.678 270.485 782.347C270.504 781.976 270.543 781.508 270.582 780.963C270.699 779.657 270.875 777.884 271.07 775.642C271.187 774.473 271.304 773.206 271.44 771.803C271.538 770.4 271.577 768.86 271.674 767.223C271.791 763.929 272.103 760.188 271.986 756.056C271.986 753.99 271.967 751.807 271.947 749.547C271.928 747.286 271.713 744.947 271.596 742.511C271.44 737.639 270.777 732.474 270.193 727.037C268.711 716.182 266.391 704.352 262.844 692.21C259.198 680.108 254.676 668.921 250.017 659.001C247.541 654.11 245.28 649.432 242.765 645.262C241.537 643.157 240.426 641.072 239.217 639.162C237.989 637.271 236.82 635.439 235.689 633.685C233.525 630.138 231.225 627.176 229.334 624.486C228.359 623.161 227.502 621.894 226.644 620.764C225.767 619.673 224.967 618.659 224.227 617.743C222.823 615.97 221.732 614.567 220.913 613.553C220.581 613.105 220.289 612.735 220.075 612.442C219.88 612.189 219.802 612.053 219.821 612.033C219.841 612.014 219.958 612.131 220.153 612.364C220.406 612.637 220.698 612.988 221.069 613.417C221.907 614.411 223.077 615.775 224.539 617.49C225.299 618.386 226.118 619.38 227.034 620.452C227.911 621.563 228.808 622.81 229.802 624.136C231.751 626.806 234.09 629.749 236.313 633.276C237.463 635.011 238.652 636.842 239.9 638.733C241.128 640.643 242.258 642.709 243.506 644.813C246.06 648.984 248.36 653.681 250.874 658.573C255.611 668.492 260.173 679.738 263.838 691.899C267.386 704.099 269.705 715.987 271.148 726.881C271.713 732.357 272.337 737.542 272.473 742.433C272.571 744.869 272.766 747.228 272.766 749.508C272.766 751.768 272.746 753.951 272.727 756.037C272.805 760.188 272.434 763.949 272.259 767.243C272.142 768.88 272.083 770.419 271.947 771.822C271.772 773.226 271.616 774.492 271.479 775.662C271.187 777.903 270.972 779.677 270.797 780.963C270.719 781.508 270.641 781.976 270.602 782.347C270.543 782.658 270.524 782.814 270.504 782.814L270.485 782.834Z" fill="#263238"/>
<path d="M310.856 550.292C310.856 550.292 310.798 550.448 310.661 550.741C310.486 551.072 310.271 551.481 309.998 551.988C309.355 553.138 308.459 554.716 307.347 556.724C306.782 557.757 306.1 558.867 305.437 560.134C304.794 561.421 304.111 562.804 303.371 564.305C302.63 565.806 301.831 567.404 300.973 569.099C300.174 570.814 299.394 572.666 298.536 574.576C297.698 576.505 296.782 578.512 295.924 580.637C295.105 582.78 294.248 585.002 293.351 587.321C292.903 588.471 292.454 589.64 292.006 590.849C291.597 592.057 291.187 593.285 290.758 594.532C289.92 597.027 289.043 599.599 288.166 602.23C284.871 612.852 281.772 624.681 279.14 637.252C276.586 649.842 274.813 661.944 273.487 672.994C272.356 684.064 271.518 694.042 271.284 702.462C271.07 706.671 271.031 710.472 271.011 713.804C270.953 717.156 270.953 720.021 271.011 722.379C271.05 724.659 271.07 726.472 271.089 727.797C271.089 728.362 271.089 728.83 271.089 729.2C271.089 729.512 271.089 729.688 271.05 729.688C271.05 729.688 271.011 729.532 270.992 729.2C270.972 728.83 270.933 728.362 270.894 727.797C270.836 726.472 270.738 724.659 270.621 722.379C270.485 720.021 270.446 717.137 270.446 713.804C270.407 710.452 270.407 706.652 270.563 702.423C270.699 693.984 271.46 683.967 272.551 672.877C273.818 661.808 275.592 649.666 278.146 637.037C280.778 624.448 283.936 612.579 287.269 601.938C288.166 599.307 289.062 596.734 289.92 594.24C290.349 592.993 290.778 591.765 291.187 590.556C291.655 589.368 292.123 588.198 292.571 587.029C293.487 584.729 294.365 582.488 295.203 580.364C296.08 578.239 297.035 576.252 297.893 574.322C298.77 572.412 299.569 570.561 300.388 568.846C301.265 567.17 302.084 565.572 302.864 564.071C303.644 562.59 304.345 561.206 305.008 559.92C305.69 558.653 306.412 557.562 306.996 556.529C308.186 554.56 309.121 553.021 309.823 551.89C310.135 551.403 310.369 551.013 310.583 550.702C310.759 550.429 310.856 550.312 310.876 550.312L310.856 550.292Z" fill="#263238"/>
<path d="M305.573 695.738C305.573 695.738 305.047 696.81 303.917 698.622C302.786 700.435 301.226 703.105 299.394 706.457C297.562 709.809 295.554 713.882 293.526 718.501C291.538 723.139 289.569 728.323 287.834 733.878C286.138 739.451 284.852 744.85 283.858 749.8C282.922 754.75 282.279 759.252 281.908 763.053C281.518 766.853 281.304 769.932 281.206 772.076C281.09 774.22 281.012 775.389 280.934 775.389C280.856 775.389 280.817 774.2 280.817 772.056C280.778 769.913 280.895 766.814 281.187 762.975C281.46 759.155 282.045 754.614 282.922 749.605C283.858 744.616 285.125 739.179 286.84 733.566C288.595 727.973 290.602 722.75 292.649 718.111C294.735 713.492 296.821 709.4 298.751 706.087C300.661 702.754 302.318 700.123 303.566 698.388C304.794 696.634 305.495 695.679 305.554 695.718L305.573 695.738Z" fill="#263238"/>
<path d="M240.601 767.847H308.692L300.447 837.383H249.081L240.601 767.847Z" fill="#455A64"/>
<path d="M243.077 829.88L248.867 837.383H300.447L306.392 830.114L243.077 829.88Z" fill="#263238"/>
<path d="M306.041 788.31C306.041 788.583 291.908 788.817 274.481 788.817C257.054 788.817 242.921 788.583 242.921 788.31C242.921 788.037 257.054 787.803 274.481 787.803C291.908 787.803 306.041 788.037 306.041 788.31Z" fill="#FAFAFA"/>
<path d="M306.041 792.929C306.041 793.202 291.908 793.436 274.481 793.436C257.054 793.436 242.921 793.202 242.921 792.929C242.921 792.656 257.054 792.422 274.481 792.422C291.908 792.422 306.041 792.656 306.041 792.929Z" fill="#FAFAFA"/>
<path d="M305.184 797.411C305.184 797.684 291.538 797.918 274.735 797.918C257.931 797.918 244.286 797.684 244.286 797.411C244.286 797.139 257.912 796.905 274.735 796.905C291.558 796.905 305.184 797.139 305.184 797.411Z" fill="#FAFAFA"/>
<path d="M974.944 786.459C980.773 783.457 987.654 783.048 994.126 784.12C997.615 784.705 1001.24 785.738 1003.6 788.349C1005.96 790.961 1006.41 795.56 1003.7 797.801C1002.08 799.146 999.818 799.341 997.732 799.321C992.664 799.263 987.03 798.366 982.976 801.426C980.656 803.161 979.135 806.065 976.367 806.922C973.658 807.76 970.617 806.162 969.174 803.726C967.732 801.29 967.693 798.23 968.355 795.482C968.355 795.482 969.057 789.499 974.944 786.459Z" fill="#E8505B"/>
<path d="M961.572 760.655C965.139 765.742 972.079 764.066 975.295 760.948C978.512 757.829 979.876 753.328 981.104 749.04C983.931 739.218 986.777 728.927 984.672 718.93C984.048 715.948 982.917 712.966 980.831 710.744C978.726 708.523 975.49 707.217 972.547 707.996C969.057 708.912 966.874 712.342 965.314 715.597C960.694 725.166 958.258 735.788 958.219 746.409C958.219 751.379 958.784 756.582 961.591 760.675" fill="#E8505B"/>
<path d="M951.766 767.964C955.646 763.364 956.367 756.66 954.651 750.911C952.936 745.162 949.037 740.25 944.554 736.255C939.291 731.558 933.111 727.914 926.464 725.575C923.852 724.659 921.083 723.938 918.335 724.192C915.567 724.464 912.799 725.868 911.512 728.323C909.602 731.948 911.434 736.353 913.403 739.958C916.873 746.292 920.869 752.353 925.294 758.044C928.861 762.643 932.936 767.165 938.374 769.23C943.813 771.296 949.447 771.062 952.312 767.301" fill="#83B4FF"/>
<path d="M961.338 837.5C961.338 837.5 961.513 836.682 961.669 835.181C961.825 833.505 962.04 831.381 962.293 828.866C962.585 826.216 962.975 823.039 963.716 819.609C964.457 816.179 965.607 812.457 967.088 808.676C968.628 804.915 970.5 801.504 972.683 798.776C974.847 796.028 977.381 794.059 979.74 792.909C982.098 791.74 984.223 791.272 985.685 791.058C987.167 790.902 987.985 790.785 987.985 790.727C987.985 790.668 987.167 790.649 985.646 790.688C984.145 790.785 981.942 791.175 979.447 792.305C976.952 793.416 974.281 795.424 972.001 798.23C969.7 801.017 967.771 804.505 966.211 808.325C964.71 812.164 963.58 815.926 962.858 819.434C962.157 822.942 961.845 826.138 961.63 828.808C961.435 831.497 961.357 833.661 961.318 835.161C961.279 836.662 961.318 837.5 961.357 837.5H961.338Z" fill="#263238"/>
<path d="M961.767 832.647C961.767 832.647 961.825 832.277 961.825 831.575C961.825 830.776 961.825 829.744 961.825 828.496C961.825 825.826 961.825 821.967 961.962 817.212C962.196 807.682 963.014 797.431 964.593 782.97C966.094 769.386 968.102 753.561 970.227 743.271C970.675 740.933 971.143 738.828 971.572 736.976C971.981 735.125 972.332 733.527 972.683 732.241C972.975 731.032 973.209 730.038 973.404 729.259C973.56 728.577 973.619 728.206 973.599 728.206C973.56 728.206 973.443 728.538 973.229 729.22C972.995 729.999 972.703 730.974 972.332 732.163C971.942 733.449 971.533 735.028 971.065 736.859C970.578 738.691 970.071 740.796 969.584 743.135C967.478 752.451 965.256 765.469 963.658 779.969C962.079 794.449 961.357 807.643 961.299 817.193C961.24 821.967 961.338 825.826 961.474 828.496C961.552 829.744 961.611 830.757 961.669 831.575C961.728 832.277 961.767 832.647 961.806 832.647H961.767Z" fill="#263238"/>
<path d="M961.825 807.214C961.825 807.214 961.884 806.064 961.806 803.999C961.689 801.933 961.396 798.951 960.831 795.307C960.207 791.662 959.349 787.336 958.004 782.639C957.42 780.495 956.035 775.35 952.702 767.652C948.316 757.225 942.332 748.709 937.146 743.427C935.938 742.024 934.573 741.011 933.481 740.017C932.916 739.549 932.429 739.062 931.922 738.691C931.415 738.341 930.947 738.009 930.499 737.717C928.783 736.548 927.828 735.924 927.789 735.982C927.633 736.197 931.61 738.535 936.639 743.875C941.649 749.215 947.458 757.674 951.805 768.003C954.242 773.615 955.938 778.605 957.127 782.853C958.511 787.511 959.447 791.779 960.129 795.385C960.792 798.99 961.182 801.952 961.416 803.999C961.611 806.045 961.747 807.175 961.806 807.175L961.825 807.214Z" fill="#263238"/>
</g>
<path d="M469.5 294H239C211.386 294 189 271.614 189 244V206.5C189 178.886 211.386 156.5 239 156.5H283C310.614 156.5 333 134.114 333 106.5V50C333 22.3858 355.386 0 383 0H992C1019.61 0 1042 22.3858 1042 50V343.5C1042 371.114 1019.61 393.5 992 393.5H899.5C871.886 393.5 849.5 371.114 849.5 343.5V206.5C849.5 178.886 827.114 156.5 799.5 156.5H724.5H569.5C541.886 156.5 519.5 178.886 519.5 206.5V244C519.5 271.614 497.114 294 469.5 294Z" fill="url(#paint0_linear_29_2)"/>
<g clip-path="url(#clip1_29_2)">
<path d="M340.627 759.188L371.545 719.704L348.991 700.528L315.714 742.995L338.178 760.56L340.627 759.188Z" fill="white"/>
<path d="M321.091 733.422C321.091 733.422 332.741 753.641 349.35 748.78L371.216 799.776L302.72 746.216L321.091 733.422Z" fill="#0D1110"/>
<path d="M302.713 746.234L371.227 799.789L366.513 805.8L297.998 752.245L302.713 746.234Z" fill="white"/>
<path d="M429.377 507.041L405.091 594.361L324.257 707.894L373.457 742.368L448.405 641.092C453.603 634.531 457.845 627.285 461.041 619.561L482.131 568.684L429.347 507.071L429.377 507.041Z" fill="#D49A73"/>
<path d="M535.721 805.919L529.717 756.176L500.174 758.442L506.626 811.973L534.974 808.603L535.721 805.919Z" fill="white"/>
<path d="M503.669 801.416C503.669 801.416 526.222 807.53 534.556 792.38L586.085 813.107L499.696 823.425L503.669 801.416Z" fill="#0D1110"/>
<path d="M586.057 813.087L586.964 820.667L500.561 830.968L499.654 823.388L586.057 813.087Z" fill="white"/>
<path d="M438.1 486.554L486.373 474.833C525.744 583.505 531.718 583.297 542.502 611.866C545.609 620.067 547.73 628.597 548.835 637.275L546.953 774.785L487 778.722L482.4 641.748L446.494 575.841C397.832 514.348 438.1 486.524 438.1 486.524V486.554Z" fill="#ECB88F"/>
<path d="M564.279 445.488L520.935 414.026C517.529 411.73 501.04 412.833 497.933 415.547L512.839 430.488C508.299 434.484 507.134 442.625 507.134 442.625L534.855 459.296L564.279 445.488Z" fill="#EAA990"/>
<path d="M506.387 461.563L544.474 428.669C544.474 428.669 508.538 389.512 489.36 368.249C483.744 362.016 474.842 359.899 466.956 362.851C454.26 367.623 450.168 382.772 457.666 394.075C469.077 411.312 506.357 461.563 506.357 461.563H506.387Z" fill="#072B61"/>
<path d="M634 338.427L614.046 314.3L597.407 341.439L629.131 339.769L634 338.427Z" fill="#96B4C3"/>
<path d="M579.812 381.043L576.646 377.524L607.832 314.509L634 338.427L579.812 381.043Z" fill="white"/>
<path d="M621.752 362.732L634 338.427L593.075 324.559L563.472 385.367L605.174 392.345L621.752 362.732Z" fill="#B2CBDA"/>
<path d="M593.046 401.68C593.046 401.68 590.775 393.031 596.959 384.442L598.094 374.72C598.243 373.259 599.289 372.036 600.693 371.649C602.724 371.082 604.785 372.394 605.144 374.452L606.578 384.323L621.723 362.732C621.723 362.732 636.748 382.027 605.681 404.542L593.016 401.68H593.046Z" fill="#EAA990"/>
<path d="M592.388 399.353L519.62 450.141L534.765 459.356C544.026 464.515 555.646 462.457 562.576 454.435L605.681 404.542L592.388 399.353Z" fill="#EAA990"/>
<path d="M455.873 343.675C455.873 343.675 412.977 362.404 421.939 405.497C421.939 405.497 431.737 475.042 420.385 507.22L496.738 501.673L502.982 438.808C502.982 438.808 522.548 414.443 496.469 376.897L483.774 362.314L455.873 343.675Z" fill="#094194"/>
<path d="M384.27 537.728L430.99 434.096C432.185 430.16 428.063 419.036 424.568 416.919L415.337 432.516C410.169 429.384 405.599 416.919 405.599 416.919L366.048 534.985L384.27 537.728Z" fill="#EAA990"/>
<path d="M380.686 426.611L429.526 456.105C429.526 456.105 456.232 410.179 470.869 385.576C475.171 378.359 474.543 369.233 469.346 362.642C460.982 351.966 443.566 348.566 434.993 359.064C421.909 375.078 380.686 426.641 380.686 426.641V426.611Z" fill="#094194"/>
<path d="M462.356 399.98L429.526 456.105L424.568 453.123" stroke="#DBDBDB" stroke-width="0.76" stroke-miterlimit="10"/>
<path d="M355.981 546.616C356.788 537.192 365.092 530.183 374.562 530.989C384.001 531.794 391.021 540.084 390.215 549.538C389.408 558.962 381.104 565.97 371.634 565.165C362.195 564.36 355.175 556.069 355.981 546.616Z" fill="#EAA990"/>
<path d="M384.479 560.9C384.479 560.9 391.738 563.823 393.202 554.936C394.666 546.049 391.619 533.792 374.562 530.989L384.509 560.9H384.479Z" fill="#EAA990"/>
<path d="M532.704 266.376C533.69 267.301 555.885 275.054 539.784 303.266C530.255 319.997 531.838 326.856 533.122 332.939C534.646 340.186 528.193 346.628 520.935 345.077L462.953 332.88L475.081 281.914L532.704 266.376Z" fill="#76301B"/>
<path d="M501.488 329.659L479.413 364.998L455.425 343.526L484.7 296.735L501.488 329.659Z" fill="#EAA990"/>
<path d="M525.505 266.674C525.505 266.674 539.784 272.669 536.139 291.546C536.139 291.546 533.361 305.205 529.179 324.798C526.969 335.146 515.617 341.29 506.058 336.697C500.203 333.864 493.93 329.689 488.942 323.516L482.25 313.436C467.523 286.238 494.498 254.716 523.384 265.81C524.071 266.078 524.758 266.346 525.475 266.674H525.505Z" fill="#EAA990"/>
<path d="M529.896 310.603L535.154 318.655C535.871 319.758 534.974 321.189 533.66 321.04L526.73 320.146L529.896 310.603Z" fill="#EAA990"/>
<path d="M528.671 295.125C528.671 295.125 533.809 295.512 533.66 297.809C533.66 297.809 533.511 299.36 529.06 298.942C524.579 298.525 523.474 297.958 523.175 296.437C522.906 294.916 526.282 294.737 528.671 295.125Z" fill="#242233"/>
<path d="M525.027 307.382C524.519 308.515 525.027 309.797 526.073 310.274C527.148 310.752 528.432 310.274 528.94 309.111C529.448 307.978 528.94 306.696 527.865 306.219C526.789 305.741 525.505 306.219 524.997 307.382H525.027Z" fill="#242233"/>
<path d="M525.326 324.679L521.98 323.098" stroke="#242233" stroke-width="0.54" stroke-linecap="round" stroke-linejoin="round"/>
<path d="M497.694 295.453C497.694 295.453 499.696 247.976 534.526 275.77C534.556 275.77 531.031 253.702 491.809 254C480.996 254.089 468.868 262.529 465.313 272.728C462.236 281.556 467.972 279.796 473.916 300.314L488.912 304.698C490.435 301.745 497.724 295.453 497.724 295.453H497.694Z" fill="#76301B"/>
<path d="M488.255 279.17L491.66 299.747C545.669 296.019 526.521 264.14 526.521 264.14C526.521 264.14 490.555 245.352 488.255 279.17Z" fill="#76301B"/>
<path d="M520.486 267.808C520.486 267.808 537.006 274.756 536.677 287.282C536.677 287.282 548.536 271.446 521.203 259.398C505.162 252.33 520.486 267.808 520.486 267.808Z" fill="#76301B"/>
<path d="M490.555 302.968C491.003 303.207 501.667 314.062 504.147 326.528C506.925 340.425 494.05 352.443 480.249 349.163L442.521 340.216C436.725 338.844 431.677 334.997 429.287 329.54C426.3 322.71 425.553 313.078 437.741 304.787C441.356 302.312 444.791 299.658 447.838 296.526C453.275 290.92 461.041 281.675 466.358 270.074L490.555 302.998V302.968Z" fill="#76301B"/>
<path d="M483.027 295.065C481.265 300.433 484.222 306.189 489.569 307.919C494.946 309.678 500.711 306.726 502.444 301.387C504.206 296.019 501.249 290.264 495.902 288.534C490.555 286.804 484.76 289.727 483.027 295.065Z" fill="#EAA990"/>
<path d="M496.41 301.566C496.41 301.566 498.71 294.528 491.6 293.455" stroke="#242233" stroke-width="0.54" stroke-linecap="round" stroke-linejoin="round"/>
<path d="M455.873 343.675L490.196 375.436L480.697 354.65L455.873 343.675Z" fill="#EAA990"/>
</g>
<path d="M215 837.5L972 837.332" stroke="#D0D0D0" stroke-width="9"/>
<path d="M50 1246.5H906C933.614 1246.5 956 1224.11 956 1196.5V1005.81C956 977.134 931.924 954.331 903.285 955.889L809.885 960.968C783.365 962.41 762.6 984.335 762.6 1010.89V1048.26C762.6 1075.87 740.214 1098.26 712.6 1098.26H638.887C611.273 1098.26 588.887 1075.87 588.887 1048.26V989.5C588.887 961.886 566.501 939.5 538.887 939.5H259.614C231.999 939.5 209.614 961.886 209.614 989.5V1048.26C209.614 1075.87 187.228 1098.26 159.614 1098.26H50C22.3858 1098.26 0 1120.64 0 1148.26V1196.5C0 1224.11 22.3857 1246.5 50 1246.5Z" fill="url(#paint1_linear_29_2)"/>
<defs>
<linearGradient id="paint0_linear_29_2" x1="615.5" y1="0" x2="615.5" y2="393.5" gradientUnits="userSpaceOnUse">
<stop stop-color="#8EACDB"/>
<stop offset="0.989583" stop-color="#8EACDB" stop-opacity="0"/>
</linearGradient>
<linearGradient id="paint1_linear_29_2" x1="478" y1="1246.5" x2="478" y2="939.5" gradientUnits="userSpaceOnUse">
<stop stop-color="#8EACDB"/>
<stop offset="1" stop-color="#8EACDB" stop-opacity="0"/>
</linearGradient>
<clipPath id="clip0_29_2">
<rect width="833" height="363" fill="white" transform="translate(196 474.5)"/>
</clipPath>
<clipPath id="clip1_29_2">
<rect width="336" height="577" fill="white" transform="matrix(-1 0 0 1 634 254)"/>
</clipPath>
</defs>
</svg>